<?xml version="1.0" encoding="UTF-8"?>
<svg width="42px" height="42px" viewBox="0 0 42 42" version="1.1" xmlns="http://www.w3.org/2000/svg" xmlns:xlink="http://www.w3.org/1999/xlink">
    <!-- Generator: Sketch 49 (51002) - http://www.bohemiancoding.com/sketch -->
    <title>icon-snow-plow-active</title>
    <desc>Created with Sketch.</desc>
    <defs></defs>
    <g id="Page-1" stroke="none" stroke-width="1" fill="none" fill-rule="evenodd">
        <g id="icon-snow-plow-active" transform="translate(-19.000000, -29.000000)" stroke="#FFFFFF" stroke-width="0.4">
            <path d="M32.6447533,57.9787329 C32.6447533,58.3779532 32.3786324,58.6440741 31.9794122,58.6440741 L26.6564492,58.6440741 C26.2572289,58.6440741 25.9911081,58.3779532 25.9911081,57.9787329 L25.9911081,54.6518713 C25.9911081,54.2526511 26.2572289,53.9865302 26.6564492,53.9865302 L31.9794122,53.9865302 C32.3786324,53.9865302 32.6447533,54.2526511 32.6447533,54.6518713 L32.6447533,57.9787329 Z" id="Path-Copy-4" fill="#990C11"></path>
            <path d="M53.9364492,57.9787329 C53.9364492,58.3779532 53.6703283,58.6440741 53.2711081,58.6440741 L47.9481451,58.6440741 C47.5489248,58.6440741 47.282804,58.3779532 47.282804,57.9787329 L47.282804,54.6518713 C47.282804,54.2526511 47.5489248,53.9865302 47.9481451,53.9865302 L53.2711081,53.9865302 C53.6703283,53.9865302 53.9364492,54.2526511 53.9364492,54.6518713 L53.9364492,57.9787329 Z" id="Path-Copy-3" fill="#990C11"></path>
            <path d="M59.8582426,60.3740546 C59.7917318,60.1079337 59.525533,59.9748343 59.2594122,59.9748343 L57.2633108,59.9748343 L57.2633108,56.6479727 C57.2633108,54.6518713 56.1321607,52.9218908 54.5352796,51.9904288 L25.3921997,51.9904288 C23.7953186,52.9219688 22.6641685,54.6518713 22.6641685,56.6479727 L22.6641685,59.9748343 L20.6680671,59.9748343 C20.4019463,59.9748343 20.1357474,60.1079337 20.0692367,60.3740546 C19.9361373,60.6401754 20.002726,60.9063743 20.2023361,61.1059844 C20.8676773,61.7713255 21.2668975,63.1020858 21.3334862,64.6324561 L58.594071,64.6324561 C58.6605817,63.1020858 59.059802,61.7714035 59.7252211,61.1059844 C59.9247533,60.9062963 59.991342,60.6401754 59.8582426,60.3740546 Z" id="Path" fill="#FF1019"></path>
            <path d="M37.3022971,53.9865302 L42.6252601,53.9865302 C43.0244804,53.9865302 43.2906012,54.2526511 43.2906012,54.6518713 C43.2906012,55.0510916 43.0244804,55.3172125 42.6252601,55.3172125 L37.3022971,55.3172125 C36.9030769,55.3172125 36.636956,55.0510916 36.636956,54.6518713 C36.636956,54.2526511 36.9030769,53.9865302 37.3022971,53.9865302 Z" id="Path" fill="#FF1019"></path>
            <path d="M44.6213615,57.9787329 L35.3061958,57.9787329 C34.9069755,57.9787329 34.6408546,57.7126121 34.6408546,57.3133918 C34.6408546,56.9141715 34.9069755,56.6480507 35.3061958,56.6480507 L44.6213615,56.6480507 C45.0205817,56.6480507 45.2867026,56.9141715 45.2867026,57.3133918 C45.2867026,57.7126121 45.0205817,57.9787329 44.6213615,57.9787329 Z" id="Path" fill="#FF1019"></path>
            <path d="M37.3022971,53.9865302 L42.6252601,53.9865302 C43.0244804,53.9865302 43.2906012,54.2526511 43.2906012,54.6518713 C43.2906012,55.0510916 43.0244804,55.3172125 42.6252601,55.3172125 L37.3022971,55.3172125 C36.9030769,55.3172125 36.636956,55.0510916 36.636956,54.6518713 C36.636956,54.2526511 36.9030769,53.9865302 37.3022971,53.9865302 Z" id="Path-Copy-6" fill="#990C11"></path>
            <path d="M44.6213615,57.9787329 L35.3061958,57.9787329 C34.9069755,57.9787329 34.6408546,57.7126121 34.6408546,57.3133918 C34.6408546,56.9141715 34.9069755,56.6480507 35.3061958,56.6480507 L44.6213615,56.6480507 C45.0205817,56.6480507 45.2867026,56.9141715 45.2867026,57.3133918 C45.2867026,57.7126121 45.0205817,57.9787329 44.6213615,57.9787329 Z" id="Path-Copy-5" fill="#990C11"></path>
            <path d="M59.7251431,68.824191 C59.1928235,68.2918713 58.7936032,67.2273099 58.6605817,65.9631384 L21.2669755,65.9631384 C21.1338761,67.2273099 20.7346558,68.2918713 20.2023361,68.824191 C20.002726,69.0238012 19.9362153,69.289922 20.0692367,69.5561209 C20.1357474,69.8222417 20.4019463,69.9553411 20.6680671,69.9553411 L59.2594122,69.9553411 C59.525533,69.9553411 59.7917318,69.8222417 59.8582426,69.5561209 C59.991342,69.289922 59.9247533,69.0238012 59.7251431,68.824191 Z" id="Shape" fill="#FF1019" fill-rule="nonzero"></path>
            <path d="M56.7309911,41.3445029 L55.2006207,41.3445029 C54.5352796,41.3445029 54.0029599,41.8768226 54.0029599,42.5421637 L54.0029599,44.0059454 L52.6722777,44.0059454 L52.6722777,37.3523002 C52.6722777,36.9530799 52.4061568,36.6869591 52.0069365,36.6869591 L50.6761763,36.6869591 L50.6761763,34.6908577 C50.6761763,34.2916374 50.4100554,34.0255166 50.0108352,34.0255166 L50.0108352,30.698655 C50.0108352,30.4990448 49.8777357,30.232924 49.6781256,30.0998246 C49.4785155,29.9667251 49.2123946,29.9667251 49.0127845,30.0998246 L46.351342,31.4305848 C46.0852211,31.5636842 45.9521217,31.7632943 45.9521217,32.0294152 L45.9521217,34.0255166 C45.5529014,34.0255166 45.2867806,34.2916374 45.2867806,34.6908577 L45.2867806,36.6869591 L34.6408546,36.6869591 L34.6408546,34.6908577 C34.6408546,34.2916374 34.3747338,34.0255166 33.9755135,34.0255166 L33.9755135,32.0294152 C33.9755135,31.7632943 33.8424141,31.5636842 33.5762932,31.4305848 L30.9147728,30.0998246 C30.7151626,29.9667251 30.4490418,30.0333138 30.2494316,30.0998246 C30.1163322,30.232924 29.9833108,30.4990448 29.9833108,30.698655 L29.9833108,34.0255166 C29.5840905,34.0255166 29.3179697,34.2916374 29.3179697,34.6908577 L29.3179697,36.6869591 L27.9872094,36.6869591 C27.5879892,36.6869591 27.3218683,36.9530799 27.3218683,37.3523002 L27.3218683,44.0059454 L25.9910301,44.0059454 L25.9910301,42.5421637 C25.9910301,41.8768226 25.4587104,41.3445029 24.7933693,41.3445029 L23.1964882,41.3445029 C22.531147,41.3445029 21.9988274,41.8768226 21.9988274,42.5421637 L21.9988274,46.7339766 C21.9988274,47.3993177 22.531147,47.9316374 23.1964882,47.9316374 L24.7268585,47.9316374 C25.3921997,47.9316374 25.9245194,47.3993177 25.9245194,46.7339766 L25.9245194,45.3367057 L27.2552796,45.3367057 L27.2552796,50.6596686 L52.5392562,50.6596686 L52.5392562,45.3367057 L53.8700164,45.3367057 L53.8700164,46.8004873 C53.8700164,47.4658285 54.4023361,47.9981481 55.0676773,47.9981481 L56.5980476,47.9981481 C57.2633888,47.9981481 57.7957084,47.4658285 57.7957084,46.8004873 L57.7957084,42.6086745 C57.9286519,41.8768226 57.3964102,41.3445029 56.7309911,41.3445029 Z M47.282804,32.4286355 L48.6135642,31.7632943 L48.6135642,34.0255166 L47.282804,34.0255166 L47.282804,32.4286355 Z M31.3139931,31.7632164 L32.6447533,32.4285575 L32.6447533,34.0254386 L31.3139931,34.0254386 L31.3139931,31.7632164 Z M30.6486519,35.3561988 L33.3100944,35.3561988 L33.3100944,36.6869591 L30.6486519,36.6869591 L30.6486519,35.3561988 Z M49.2789053,49.3289084 L30.6486519,49.3289084 L30.6486519,40.0138207 L49.2789053,40.0138207 L49.2789053,49.3289084 Z M49.2789053,36.6869591 L46.6174628,36.6869591 L46.6174628,35.3561988 L49.2789053,35.3561988 L49.2789053,36.6869591 Z" id="Shape" fill="#FF1019" fill-rule="nonzero"></path>
            <path d="M32.6447533,57.9787329 C32.6447533,58.3779532 32.3786324,58.6440741 31.9794122,58.6440741 L26.6564492,58.6440741 C26.2572289,58.6440741 25.9911081,58.3779532 25.9911081,57.9787329 L25.9911081,54.6518713 C25.9911081,54.2526511 26.2572289,53.9865302 26.6564492,53.9865302 L31.9794122,53.9865302 C32.3786324,53.9865302 32.6447533,54.2526511 32.6447533,54.6518713 L32.6447533,57.9787329 Z" id="Path" fill="#990C11"></path>
            <path d="M53.9364492,57.9787329 C53.9364492,58.3779532 53.6703283,58.6440741 53.2711081,58.6440741 L47.9481451,58.6440741 C47.5489248,58.6440741 47.282804,58.3779532 47.282804,57.9787329 L47.282804,54.6518713 C47.282804,54.2526511 47.5489248,53.9865302 47.9481451,53.9865302 L53.2711081,53.9865302 C53.6703283,53.9865302 53.9364492,54.2526511 53.9364492,54.6518713 L53.9364492,57.9787329 Z" id="Path" fill="#990C11"></path>
            <polygon id="Path-Copy-2" fill="#990C11" points="49.2789053 49.3289084 30.6486519 49.3289084 30.6486519 40.0138207 49.2789053 40.0138207"></polygon>
        </g>
    </g>
</svg>