<?xml version="1.0" encoding="UTF-8"?>
<svg width="63px" height="42px" viewBox="0 0 63 42" version="1.1" xmlns="http://www.w3.org/2000/svg" xmlns:xlink="http://www.w3.org/1999/xlink">
    <!-- Generator: Sketch 49 (51002) - http://www.bohemiancoding.com/sketch -->
    <title>icon-dump-truck-active</title>
    <desc>Created with Sketch.</desc>
    <defs></defs>
    <g id="Page-1" stroke="none" stroke-width="1" fill="none" fill-rule="evenodd">
        <g id="icon-dump-truck-active" transform="translate(1.000000, 1.000000)" stroke="#FFFFFF" stroke-width="0.6">
            <path d="M13.4612502,24.68125 C9.23069091,24.68125 5.80625,28.10625 5.80625,32.3375 C5.80625,36.56875 9.23069091,39.99375 13.4612502,39.99375 C17.6918095,39.99375 21.1162504,36.56875 21.1162504,32.3375 C21.1162504,28.1125 17.6918095,24.68125 13.4612502,24.68125 Z M13.4612502,34.86875 C12.0677277,34.86875 10.9366624,33.7375 10.9366624,32.3375 C10.9366624,30.94375 12.0677277,29.8125 13.4612502,29.8125 C14.8610217,29.8125 15.992087,30.94375 15.992087,32.3375 C15.992087,33.7375 14.8610217,34.86875 13.4612502,34.86875 Z" id="Shape" fill="#FF9000" fill-rule="nonzero"></path>
            <path d="M39.375,6.56875 L39.375,22.1875 C39.375,22.1875 39.79375,22.0875 41.9,22.0875 C46.6,22.0875 48.9875,24.39375 50.13125,26.18125 C50.73125,25.55625 51.56875,25.1625 52.5,25.1625 L60.15625,25.1625 L60.15625,13.675 L55.50625,6.5625 L39.375,6.5625 L39.375,6.56875 Z M56.875,18.6 L48.125,18.6 L48.125,9.85 L54.6875,9.85 L56.875,13.3375 L56.875,18.6 Z" id="Shape" fill="#FF9000" fill-rule="nonzero"></path>
            <path d="M3.2125,17.50625 C3.2125,17.50625 21.2625,20.85625 23.65,29.5375 L31.91875,29.5375 C31.91875,29.5375 32.94375,24.06875 37.18125,22.56875 L37.18125,4.38125 L56.425,4.38125 L59.60625,0.00625 L35,0.00625 L31.99375,6.56875 L0,6.56875 L0,10.94375 L3.28125,10.94375 L3.2125,17.50625 Z" id="Shape" fill="#FF9000" fill-rule="nonzero"></path>
            <path d="M52.5,27.35 C51.99375,27.35 51.58125,27.70625 51.4625,28.18125 C51.4375,28.26875 51.40625,28.35 51.40625,28.44375 L51.40625,30.63125 C51.40625,31.2375 51.89375,31.725 52.5,31.725 L60.15625,31.725 C60.75625,31.725 61.25,31.2375 61.25,30.63125 L61.25,28.44375 C61.25,27.84375 60.75625,27.35 60.15625,27.35 L52.5,27.35 Z" id="Shape" fill="#FF9000" fill-rule="nonzero"></path>
            <path d="M41.9,24.68125 C37.66875,24.68125 34.24375,28.10625 34.24375,32.3375 C34.24375,36.56875 37.66875,39.99375 41.9,39.99375 C46.13125,39.99375 49.55625,36.56875 49.55625,32.3375 C49.55625,32.23125 49.54375,32.13125 49.54375,32.03125 C49.51875,31.35 49.4125,30.69375 49.21875,30.06875 C48.25,26.95 45.34375,24.68125 41.9,24.68125 Z M41.9,34.86875 C40.50625,34.86875 39.375,33.7375 39.375,32.3375 C39.375,30.94375 40.50625,29.8125 41.9,29.8125 C43.3,29.8125 44.43125,30.94375 44.43125,32.3375 C44.43125,33.7375 43.3,34.86875 41.9,34.86875 Z" id="Shape" fill="#FF9000" fill-rule="nonzero"></path>
            <polygon id="Path-Copy-9" fill="#9C5901" points="56.875 18.6 48.125 18.6 48.125 9.85 54.6875 9.85 56.875 13.3375"></polygon>
            <path d="M13.4625,34.86875 C12.06875,34.86875 10.9375,33.7375 10.9375,32.3375 C10.9375,30.94375 12.06875,29.8125 13.4625,29.8125 C14.8625,29.8125 15.99375,30.94375 15.99375,32.3375 C15.99375,33.7375 14.8625,34.86875 13.4625,34.86875 Z" id="Path-Copy-8" fill="#9C5901"></path>
            <path d="M41.9,34.86875 C40.50625,34.86875 39.375,33.7375 39.375,32.3375 C39.375,30.94375 40.50625,29.8125 41.9,29.8125 C43.3,29.8125 44.43125,30.94375 44.43125,32.3375 C44.43125,33.7375 43.3,34.86875 41.9,34.86875 Z" id="Path-Copy-7" fill="#9C5901"></path>
        </g>
    </g>
</svg>