<?xml version="1.0" encoding="UTF-8"?>
<svg width="51px" height="41px" viewBox="0 0 51 41" version="1.1" xmlns="http://www.w3.org/2000/svg" xmlns:xlink="http://www.w3.org/1999/xlink">
    <!-- Generator: Sketch 49 (51002) - http://www.bohemiancoding.com/sketch -->
    <title>icon-tractor-active</title>
    <desc>Created with Sketch.</desc>
    <defs></defs>
    <g id="Page-1" stroke="none" stroke-width="1" fill="none" fill-rule="evenodd">
        <g id="UI" transform="translate(-23.000000, -110.000000)" stroke="#FFFFFF">
            <g id="icon-tractor-active" transform="translate(24.000000, 111.000000)">
                <path d="M9.3748085,20.7439651 C4.20555866,20.7439651 0,24.9498006 0,30.1190505 C0,35.2883003 4.20555866,39.4940436 9.3748085,39.4940436 C14.5445198,39.4940436 18.7498016,35.2883003 18.7498016,30.1190505 C18.7498016,24.9498006 14.5445198,20.7439651 9.3748085,20.7439651 Z M9.3748085,36.2609436 C5.98804587,36.2609436 3.23300764,33.5056285 3.23300764,30.1190505 C3.23300764,26.7324724 5.98804587,23.9777111 9.3748085,23.9777111 C12.7621249,23.9777111 15.5171631,26.7325647 15.5171631,30.1190505 C15.5171631,33.5055362 12.7626786,36.2609436 9.3748085,36.2609436 Z M36.5455101,25.0044363 C32.6003936,25.0044363 29.3907353,28.2140946 29.3907353,32.1587497 C29.3907353,36.1043276 32.6003936,39.3135245 36.5455101,39.3135245 C40.4906267,39.3135245 43.700285,36.1053428 43.700285,32.1587497 C43.700285,28.2141868 40.4917341,25.0044363 36.5455101,25.0044363 Z M36.5455101,36.4795784 C34.1627694,36.4795784 32.2251428,34.5403829 32.2251428,32.1587497 C32.2251428,29.7765626 34.1638768,27.8388438 36.5455101,27.8388438 C38.9282509,27.8388438 40.8669849,29.7764703 40.8669849,32.1587497 C40.8669849,34.5403829 38.9282509,36.4795784 36.5455101,36.4795784 Z M19.7859403,29.3858995 L28.7142503,29.3858995 C28.3055906,30.3710942 28.0770808,31.448948 28.0759733,32.5808837 L19.5625988,32.5864211 C19.7322276,31.8451486 19.8301472,31.0770197 19.8301472,30.2833265 C19.8307009,29.9805233 19.8115969,29.683719 19.7859403,29.3858995 Z M49.3489809,21.7309133 C49.3489809,21.0048687 48.7582332,20.4151362 48.03265,20.4151362 L31.473903,16.7968182 L26.0564856,1.01072231 C25.907622,0.428649877 25.3822156,0.0203593399 24.7814083,0.0203593399 L7.20230415,0.0203593399 C6.47515199,0.0203593399 5.88680385,0.610276409 5.88680385,1.33576735 C5.88680385,2.06319638 6.47561344,2.65126765 7.20230415,2.65126765 L9.43073618,2.65126765 L9.43073618,14.6258828 C8.98562197,14.5426373 8.52841778,14.4941851 8.0593082,14.4941851 C3.97215749,14.4941851 0.657934729,17.8080387 0.657934729,21.8955585 L0.657934729,24.444698 C2.44254461,21.3909173 5.74799983,19.3343291 9.53954598,19.3343291 C14.6937526,19.3343291 18.9497015,23.1271673 19.7003876,28.0705838 L29.0269285,28.0705838 C30.4184757,25.4107887 33.1994473,23.5942465 36.4097517,23.5942465 C41.0078193,23.5942465 44.735224,27.3178673 44.7423303,31.9147351 L47.2287126,31.9126125 C47.2771648,31.9180576 45.6805494,31.9284863 45.7296477,31.9284863 L48.361202,31.9284863 C49.0872467,31.9284863 49.6769792,31.3376464 49.6769792,30.6132629 L49.3489809,21.7309133 Z M21.6377373,16.358718 C20.0803451,11.6750053 13.3946799,11.2124483 12.7539111,11.2124483 L12.062752,11.2124483 L12.062752,2.65182139 L23.759113,2.65182139 L28.6803799,16.358718 L21.6377373,16.358718 Z" stroke-width="0.6" fill="#0076FF" fill-rule="nonzero"></path>
                <path d="M21.6377373,16.358718 C20.0803451,11.6750053 13.3946799,11.2124483 12.7539111,11.2124483 L12.062752,11.2124483 L12.062752,2.65182139 L23.759113,2.65182139 L28.6803799,16.358718 L21.6377373,16.358718 Z" id="Path-Copy" stroke-width="0.6" fill="#023C7F"></path>
                <path d="M9.3748085,36.2609436 C5.98804587,36.2609436 3.23300764,33.5056285 3.23300764,30.1190505 C3.23300764,26.7324724 5.98804587,23.9777111 9.3748085,23.9777111 C12.7621249,23.9777111 15.5171631,26.7325647 15.5171631,30.1190505 C15.5171631,33.5055362 12.7626786,36.2609436 9.3748085,36.2609436 Z" id="back" stroke-width="0.4" fill="#023C7F"></path>
                <path d="M36.5455101,36.4795784 C34.1627694,36.4795784 32.2251428,34.5403829 32.2251428,32.1587497 C32.2251428,29.7765626 34.1638768,27.8388438 36.5455101,27.8388438 C38.9282509,27.8388438 40.8669849,29.7764703 40.8669849,32.1587497 C40.8669849,34.5403829 38.9282509,36.4795784 36.5455101,36.4795784 Z" id="forward" stroke-width="0.4" fill="#023C7F"></path>
            </g>
        </g>
    </g>
</svg>