<?xml version="1.0" encoding="UTF-8"?>
<svg width="37px" height="64px" viewBox="0 0 37 64" version="1.1" xmlns="http://www.w3.org/2000/svg" xmlns:xlink="http://www.w3.org/1999/xlink">
    <!-- Generator: Sketch 49 (51002) - http://www.bohemiancoding.com/sketch -->
    <title>icon-pin-snow-plow-active</title>
    <desc>Created with Sketch.</desc>
    <defs></defs>
    <g id="Page-1" stroke="none" stroke-width="1" fill="none" fill-rule="evenodd">
        <g id="UI" transform="translate(-67.000000, -75.000000)">
            <g id="Pins" transform="translate(11.000000, 76.000000)">
                <g id="icon-pin-snow-plow-active" transform="translate(57.000000, 0.000000)">
                    <path d="M4.69868956,6.01072172 C1.97721056,8.91521745 0.272565722,13.1462547 0.338755442,17.1259872 C0.47697515,25.4424443 4.22562774,28.5906523 10.2204047,40.0366934 C12.3798334,45.0734066 14.6336367,50.4028903 16.7771886,59.2296571 C17.0750856,60.5316694 17.3656065,61.7410594 17.4999976,61.8458382 C17.6343238,61.9507467 17.9249096,60.737009 18.2228066,59.4349966 C20.3663585,50.6082298 22.6201617,45.2829857 24.7795905,40.2462725 C30.7743674,28.8002314 34.5229768,25.6520018 34.6612397,17.3355448 C34.7274295,13.3558122 33.0185667,9.120557 30.2970877,6.21606126 C27.1882474,2.89816098 22.49916,0.442673804 17.4999976,0.339993217 C12.5008352,0.237247737 7.80752983,2.69282143 4.69868956,6.01072172 Z" id="pin" stroke="#990C11" stroke-width="1.1855854" fill="#FF1019" fill-rule="nonzero"></path>
                    <g id="icon" transform="translate(7.000000, 6.000000)" fill="#FFFFFF">
                        <path d="M19.3576109,14.7515066 C19.4222521,14.8807513 19.3899126,15.0099959 19.2930075,15.1069767 C18.9698391,15.4301451 18.7759532,16.0764061 18.7436515,16.819648 L0.647622821,16.819648 C0.615283261,16.0764061 0.421397375,15.4301072 0.0982668532,15.1069767 C0.00132391001,15.0100338 -0.03101565,14.8807513 0.0336256016,14.7515066 C0.0659272933,14.622262 0.195209796,14.5576207 0.324454431,14.5576207 L1.29388386,14.5576207 L1.29388386,12.9418924 C1.29388386,11.972463 1.84323983,11.132316 2.61878338,10.679903 L16.7724531,10.679903 C17.5479966,11.1322782 18.0973526,11.972463 18.0973526,12.9418924 L18.0973526,14.5576207 L19.066782,14.5576207 C19.1960267,14.5576207 19.3253092,14.622262 19.3576109,14.7515066 Z M8.40305828,11.6493324 C8.20917239,11.6493324 8.07992776,11.7785771 8.07992776,11.972463 C8.07992776,12.1663488 8.20917239,12.2955935 8.40305828,12.2955935 L10.9882161,12.2955935 C11.1821019,12.2955935 11.3113466,12.1663488 11.3113466,11.972463 C11.3113466,11.7785771 11.1821019,11.6493324 10.9882161,11.6493324 L8.40305828,11.6493324 Z M11.9576455,13.5881913 C12.1515314,13.5881913 12.280776,13.4589467 12.280776,13.2650608 C12.280776,13.0711749 12.1515314,12.9419303 11.9576455,12.9419303 L7.43362885,12.9419303 C7.23974296,12.9419303 7.11049833,13.0711749 7.11049833,13.2650608 C7.11049833,13.4589467 7.23974296,13.5881913 7.43362885,13.5881913 L11.9576455,13.5881913 Z M6.14106889,13.5881913 L6.14106889,11.972463 C6.14106889,11.7785771 6.01182426,11.6493324 5.81793837,11.6493324 L3.2327806,11.6493324 C3.03889471,11.6493324 2.90965008,11.7785771 2.90965008,11.972463 L2.90965008,13.5881913 C2.90965008,13.7820772 3.03889471,13.9113218 3.2327806,13.9113218 L5.81793837,13.9113218 C6.01182426,13.9113218 6.14106889,13.7820772 6.14106889,13.5881913 Z M16.4816243,13.5881913 L16.4816243,11.972463 C16.4816243,11.7785771 16.3523796,11.6493324 16.1584937,11.6493324 L13.573336,11.6493324 C13.3794501,11.6493324 13.2502054,11.7785771 13.2502054,11.972463 L13.2502054,13.5881913 C13.2502054,13.7820772 13.3794501,13.9113218 13.573336,13.9113218 L16.1584937,13.9113218 C16.3523796,13.9113218 16.4816243,13.7820772 16.4816243,13.5881913 Z" id="Combined-Shape"></path>
                        <path d="M19.2929696,18.8554119 C19.0344425,18.5968848 18.8405566,18.0798684 18.7759532,17.465909 L0.615321129,17.465909 C0.550679878,18.0798684 0.356793991,18.5968848 0.0982668532,18.8554119 C0.00132391001,18.9523549 -0.0309777816,19.0815995 0.0336256016,19.210882 C0.0659272933,19.3401266 0.195209796,19.4047679 0.324454431,19.4047679 L19.066782,19.4047679 C19.1960267,19.4047679 19.3253092,19.3401266 19.3576109,19.210882 C19.4222521,19.0815995 19.3899126,18.9523549 19.2929696,18.8554119 Z" id="Shape" fill-rule="nonzero"></path>
                        <path d="M17.8388255,5.50958745 L17.0955836,5.50958745 C16.7724531,5.50958745 16.513926,5.76811459 16.513926,6.09124511 L16.513926,6.80214741 L15.8676649,6.80214741 L15.8676649,3.57072859 C15.8676649,3.3768427 15.7384203,3.24759807 15.5445344,3.24759807 L14.8982355,3.24759807 L14.8982355,2.27816863 C14.8982355,2.08428275 14.7689908,1.95503811 14.575105,1.95503811 L14.575105,0.339309768 C14.575105,0.242366825 14.5104637,0.11312219 14.4135208,0.0484809387 C14.3165778,-0.0161603129 14.1873332,-0.0161603129 14.0903902,0.0484809387 L12.7978303,0.69477985 C12.6685857,0.759421101 12.6039444,0.856364045 12.6039444,0.985608679 L12.6039444,1.95503811 C12.4100585,1.95503811 12.2808139,2.08428275 12.2808139,2.27816863 L12.2808139,3.24759807 L7.11049833,3.24759807 L7.11049833,2.27816863 C7.11049833,2.08428275 6.98125369,1.95503811 6.7873678,1.95503811 L6.7873678,0.985608679 C6.7873678,0.856364045 6.72272655,0.759421101 6.59348192,0.69477985 L5.3008841,0.0484809387 C5.20394115,-0.0161603129 5.07469652,0.0161792471 4.97775357,0.0484809387 C4.91311232,0.11312219 4.84850894,0.242366825 4.84850894,0.339309768 L4.84850894,1.95503811 C4.65462305,1.95503811 4.52537842,2.08428275 4.52537842,2.27816863 L4.52537842,3.24759807 L3.87907951,3.24759807 C3.68519362,3.24759807 3.55594899,3.3768427 3.55594899,3.57072859 L3.55594899,6.80214741 L2.90961221,6.80214741 L2.90961221,6.09124511 C2.90961221,5.76811459 2.65108507,5.50958745 2.32795455,5.50958745 L1.552411,5.50958745 C1.22928048,5.50958745 0.970753342,5.76811459 0.970753342,6.09124511 L0.970753342,8.12704692 C0.970753342,8.45017744 1.22928048,8.70870458 1.552411,8.70870458 L2.29565286,8.70870458 C2.61878338,8.70870458 2.87731052,8.45017744 2.87731052,8.12704692 L2.87731052,7.44844632 L3.52360943,7.44844632 L3.52360943,10.0336041 L15.8030615,10.0336041 L15.8030615,7.44844632 L16.4493604,7.44844632 L16.4493604,8.15934861 C16.4493604,8.48247913 16.7078876,8.74100627 17.0310181,8.74100627 L17.77426,8.74100627 C18.0973905,8.74100627 18.3559176,8.48247913 18.3559176,8.15934861 L18.3559176,6.1235468 C18.4204831,5.76811459 18.1619939,5.50958745 17.8388255,5.50958745 Z M13.2502054,1.17949457 L13.8965044,0.856364045 L13.8965044,1.95503811 L13.2502054,1.95503811 L13.2502054,1.17949457 Z M5.49476998,0.856326176 L6.14106889,1.1794567 L6.14106889,1.95500024 L5.49476998,1.95500024 L5.49476998,0.856326176 Z M5.17163946,2.60129915 L6.46419942,2.60129915 L6.46419942,3.24759807 L5.17163946,3.24759807 L5.17163946,2.60129915 Z M14.2196349,9.38730518 L5.17163946,9.38730518 L5.17163946,4.86332641 L14.2196349,4.86332641 L14.2196349,9.38730518 Z M14.2196349,3.24759807 L12.9270749,3.24759807 L12.9270749,2.60129915 L14.2196349,2.60129915 L14.2196349,3.24759807 Z" id="Shape" fill-rule="nonzero"></path>
                    </g>
                </g>
            </g>
        </g>
    </g>
</svg>