<?xml version="1.0" encoding="UTF-8"?>
<svg width="42px" height="42px" viewBox="0 0 42 42" version="1.1" xmlns="http://www.w3.org/2000/svg" xmlns:xlink="http://www.w3.org/1999/xlink">
    <!-- Generator: Sketch 49 (51002) - http://www.bohemiancoding.com/sketch -->
    <title>icon-snow-plow-active</title>
    <desc>Created with Sketch.</desc>
    <defs></defs>
    <g id="Page-1" stroke="none" stroke-width="1" fill="none" fill-rule="evenodd">
        <g id="UI" transform="translate(-83.000000, -106.000000)" stroke="#FFFFFF" stroke-width="0.4">
            <g id="icon-snow-plow-active" transform="translate(84.000000, 107.000000)">
                <path d="M12.6447533,27.9787329 C12.6447533,28.3779532 12.3786324,28.6440741 11.9794122,28.6440741 L6.65644919,28.6440741 C6.25722892,28.6440741 5.99110806,28.3779532 5.99110806,27.9787329 L5.99110806,24.6518713 C5.99110806,24.2526511 6.25722892,23.9865302 6.65644919,23.9865302 L11.9794122,23.9865302 C12.3786324,23.9865302 12.6447533,24.2526511 12.6447533,24.6518713 L12.6447533,27.9787329 Z" id="Path-Copy-4" fill="#990C11"></path>
                <path d="M33.9364492,27.9787329 C33.9364492,28.3779532 33.6703283,28.6440741 33.2711081,28.6440741 L27.9481451,28.6440741 C27.5489248,28.6440741 27.282804,28.3779532 27.282804,27.9787329 L27.282804,24.6518713 C27.282804,24.2526511 27.5489248,23.9865302 27.9481451,23.9865302 L33.2711081,23.9865302 C33.6703283,23.9865302 33.9364492,24.2526511 33.9364492,24.6518713 L33.9364492,27.9787329 Z" id="Path-Copy-3" fill="#990C11"></path>
                <path d="M39.8582426,30.3740546 C39.7917318,30.1079337 39.525533,29.9748343 39.2594122,29.9748343 L37.2633108,29.9748343 L37.2633108,26.6479727 C37.2633108,24.6518713 36.1321607,22.9218908 34.5352796,21.9904288 L5.39219968,21.9904288 C3.79531859,22.9219688 2.66416849,24.6518713 2.66416849,26.6479727 L2.66416849,29.9748343 L0.668067124,29.9748343 C0.401946267,29.9748343 0.135747436,30.1079337 0.069236715,30.3740546 C-0.0638627002,30.6401754 0.00272599376,30.9063743 0.20233613,31.1059844 C0.867677261,31.7713255 1.26689753,33.1020858 1.33348623,34.6324561 L38.594071,34.6324561 C38.6605817,33.1020858 39.059802,31.7714035 39.7252211,31.1059844 C39.9247533,30.9062963 39.991342,30.6401754 39.8582426,30.3740546 Z" id="Path" fill="#FF1019"></path>
                <path d="M17.3022971,23.9865302 L22.6252601,23.9865302 C23.0244804,23.9865302 23.2906012,24.2526511 23.2906012,24.6518713 C23.2906012,25.0510916 23.0244804,25.3172125 22.6252601,25.3172125 L17.3022971,25.3172125 C16.9030769,25.3172125 16.636956,25.0510916 16.636956,24.6518713 C16.636956,24.2526511 16.9030769,23.9865302 17.3022971,23.9865302 Z" id="Path" fill="#FF1019"></path>
                <path d="M24.6213615,27.9787329 L15.3061958,27.9787329 C14.9069755,27.9787329 14.6408546,27.7126121 14.6408546,27.3133918 C14.6408546,26.9141715 14.9069755,26.6480507 15.3061958,26.6480507 L24.6213615,26.6480507 C25.0205817,26.6480507 25.2867026,26.9141715 25.2867026,27.3133918 C25.2867026,27.7126121 25.0205817,27.9787329 24.6213615,27.9787329 Z" id="Path" fill="#FF1019"></path>
                <path d="M17.3022971,23.9865302 L22.6252601,23.9865302 C23.0244804,23.9865302 23.2906012,24.2526511 23.2906012,24.6518713 C23.2906012,25.0510916 23.0244804,25.3172125 22.6252601,25.3172125 L17.3022971,25.3172125 C16.9030769,25.3172125 16.636956,25.0510916 16.636956,24.6518713 C16.636956,24.2526511 16.9030769,23.9865302 17.3022971,23.9865302 Z" id="Path-Copy-6" fill="#990C11"></path>
                <path d="M24.6213615,27.9787329 L15.3061958,27.9787329 C14.9069755,27.9787329 14.6408546,27.7126121 14.6408546,27.3133918 C14.6408546,26.9141715 14.9069755,26.6480507 15.3061958,26.6480507 L24.6213615,26.6480507 C25.0205817,26.6480507 25.2867026,26.9141715 25.2867026,27.3133918 C25.2867026,27.7126121 25.0205817,27.9787329 24.6213615,27.9787329 Z" id="Path-Copy-5" fill="#990C11"></path>
                <path d="M39.7251431,38.824191 C39.1928235,38.2918713 38.7936032,37.2273099 38.6605817,35.9631384 L1.26697551,35.9631384 C1.13387609,37.2273099 0.734655818,38.2918713 0.20233613,38.824191 C0.00272599376,39.0238012 -0.0637847275,39.289922 0.069236715,39.5561209 C0.135747436,39.8222417 0.401946267,39.9553411 0.668067124,39.9553411 L39.2594122,39.9553411 C39.525533,39.9553411 39.7917318,39.8222417 39.8582426,39.5561209 C39.991342,39.289922 39.9247533,39.0238012 39.7251431,38.824191 Z" id="Shape" fill="#FF1019" fill-rule="nonzero"></path>
                <path d="M36.7309911,11.3445029 L35.2006207,11.3445029 C34.5352796,11.3445029 34.0029599,11.8768226 34.0029599,12.5421637 L34.0029599,14.0059454 L32.6722777,14.0059454 L32.6722777,7.35230019 C32.6722777,6.95307992 32.4061568,6.68695906 32.0069365,6.68695906 L30.6761763,6.68695906 L30.6761763,4.6908577 C30.6761763,4.29163743 30.4100554,4.02551657 30.0108352,4.02551657 L30.0108352,0.698654971 C30.0108352,0.499044834 29.8777357,0.232923977 29.6781256,0.0998245614 C29.4785155,-0.0332748538 29.2123946,-0.0332748538 29.0127845,0.0998245614 L26.351342,1.4305848 C26.0852211,1.56368421 25.9521217,1.76329435 25.9521217,2.0294152 L25.9521217,4.02551657 C25.5529014,4.02551657 25.2867806,4.29163743 25.2867806,4.6908577 L25.2867806,6.68695906 L14.6408546,6.68695906 L14.6408546,4.6908577 C14.6408546,4.29163743 14.3747338,4.02551657 13.9755135,4.02551657 L13.9755135,2.0294152 C13.9755135,1.76329435 13.8424141,1.56368421 13.5762932,1.4305848 L10.9147728,0.0998245614 C10.7151626,-0.0332748538 10.4490418,0.0333138402 10.2494316,0.0998245614 C10.1163322,0.232923977 9.98331079,0.499044834 9.98331079,0.698654971 L9.98331079,4.02551657 C9.58409052,4.02551657 9.31796966,4.29163743 9.31796966,4.6908577 L9.31796966,6.68695906 L7.98720942,6.68695906 C7.58798915,6.68695906 7.32186829,6.95307992 7.32186829,7.35230019 L7.32186829,14.0059454 L5.99103009,14.0059454 L5.99103009,12.5421637 C5.99103009,11.8768226 5.4587104,11.3445029 4.79336927,11.3445029 L3.19648818,11.3445029 C2.53114705,11.3445029 1.99882736,11.8768226 1.99882736,12.5421637 L1.99882736,16.7339766 C1.99882736,17.3993177 2.53114705,17.9316374 3.19648818,17.9316374 L4.72685855,17.9316374 C5.39219968,17.9316374 5.92451937,17.3993177 5.92451937,16.7339766 L5.92451937,15.3367057 L7.2552796,15.3367057 L7.2552796,20.6596686 L32.5392562,20.6596686 L32.5392562,15.3367057 L33.8700164,15.3367057 L33.8700164,16.8004873 C33.8700164,17.4658285 34.4023361,17.9981481 35.0676773,17.9981481 L36.5980476,17.9981481 C37.2633888,17.9981481 37.7957084,17.4658285 37.7957084,16.8004873 L37.7957084,12.6086745 C37.9286519,11.8768226 37.3964102,11.3445029 36.7309911,11.3445029 Z M27.282804,2.42863548 L28.6135642,1.76329435 L28.6135642,4.02551657 L27.282804,4.02551657 L27.282804,2.42863548 Z M11.3139931,1.76321637 L12.6447533,2.4285575 L12.6447533,4.0254386 L11.3139931,4.0254386 L11.3139931,1.76321637 Z M10.6486519,5.35619883 L13.3100944,5.35619883 L13.3100944,6.68695906 L10.6486519,6.68695906 L10.6486519,5.35619883 Z M29.2789053,19.3289084 L10.6486519,19.3289084 L10.6486519,10.0138207 L29.2789053,10.0138207 L29.2789053,19.3289084 Z M29.2789053,6.68695906 L26.6174628,6.68695906 L26.6174628,5.35619883 L29.2789053,5.35619883 L29.2789053,6.68695906 Z" id="Shape" fill="#FF1019" fill-rule="nonzero"></path>
                <path d="M12.6447533,27.9787329 C12.6447533,28.3779532 12.3786324,28.6440741 11.9794122,28.6440741 L6.65644919,28.6440741 C6.25722892,28.6440741 5.99110806,28.3779532 5.99110806,27.9787329 L5.99110806,24.6518713 C5.99110806,24.2526511 6.25722892,23.9865302 6.65644919,23.9865302 L11.9794122,23.9865302 C12.3786324,23.9865302 12.6447533,24.2526511 12.6447533,24.6518713 L12.6447533,27.9787329 Z" id="Path" fill="#990C11"></path>
                <path d="M33.9364492,27.9787329 C33.9364492,28.3779532 33.6703283,28.6440741 33.2711081,28.6440741 L27.9481451,28.6440741 C27.5489248,28.6440741 27.282804,28.3779532 27.282804,27.9787329 L27.282804,24.6518713 C27.282804,24.2526511 27.5489248,23.9865302 27.9481451,23.9865302 L33.2711081,23.9865302 C33.6703283,23.9865302 33.9364492,24.2526511 33.9364492,24.6518713 L33.9364492,27.9787329 Z" id="Path" fill="#990C11"></path>
                <polygon id="Path-Copy-2" fill="#990C11" points="29.2789053 19.3289084 10.6486519 19.3289084 10.6486519 10.0138207 29.2789053 10.0138207"></polygon>
            </g>
        </g>
    </g>
</svg>