<?xml version="1.0" encoding="UTF-8"?>
<svg width="37px" height="64px" viewBox="0 0 37 64" version="1.1" xmlns="http://www.w3.org/2000/svg" xmlns:xlink="http://www.w3.org/1999/xlink">
    <!-- Generator: Sketch 49 (51002) - http://www.bohemiancoding.com/sketch -->
    <title>icon-pin-tractor-active</title>
    <desc>Created with Sketch.</desc>
    <defs></defs>
    <g id="Page-1" stroke="none" stroke-width="1" fill="none" fill-rule="evenodd">
        <g id="UI" transform="translate(-10.000000, -75.000000)" fill-rule="nonzero">
            <g id="Pins" transform="translate(11.000000, 76.000000)">
                <g id="icon-pin-tractor-active">
                    <path d="M4.69868956,6.01072172 C1.97721056,8.91521745 0.272565722,13.1462547 0.338755442,17.1259872 C0.47697515,25.4424443 4.22562774,28.5906523 10.2204047,40.0366934 C12.3798334,45.0734066 14.6336367,50.4028903 16.7771886,59.2296571 C17.0750856,60.5316694 17.3656065,61.7410594 17.4999976,61.8458382 C17.6343238,61.9507467 17.9249096,60.737009 18.2228066,59.4349966 C20.3663585,50.6082298 22.6201617,45.2829857 24.7795905,40.2462725 C30.7743674,28.8002314 34.5229768,25.6520018 34.6612397,17.3355448 C34.7274295,13.3558122 33.0185667,9.120557 30.2970877,6.21606126 C27.1882474,2.89816098 22.49916,0.442673804 17.4999976,0.339993217 C12.5008352,0.237247737 7.80752983,2.69282143 4.69868956,6.01072172 Z" id="pin" stroke="#023C7F" stroke-width="1.1855854" fill="#0076FF"></path>
                    <path d="M10.774307,16.3433438 C8.69316199,16.3433438 7,18.0366172 7,20.1177622 C7,22.1989072 8.69316199,23.8921435 10.774307,23.8921435 C12.8556378,23.8921435 14.5486883,22.1989072 14.5486883,20.1177622 C14.5486883,18.0366172 12.8556378,16.3433438 10.774307,16.3433438 Z M10.774307,22.5904944 C9.41079308,22.5904944 8.30161201,21.4812018 8.30161201,20.1177622 C8.30161201,18.7543226 9.41079308,17.645253 10.774307,17.645253 C12.1380438,17.645253 13.2472249,18.7543598 13.2472249,20.1177622 C13.2472249,21.4811647 12.1382668,22.5904944 10.774307,22.5904944 Z M21.7132578,18.0586136 C20.1249501,18.0586136 18.8327385,19.3508251 18.8327385,20.9389471 C18.8327385,22.5274406 20.1249501,23.8194664 21.7132578,23.8194664 C23.3015656,23.8194664 24.5937771,22.5278494 24.5937771,20.9389471 C24.5937771,19.3508623 23.3020114,18.0586136 21.7132578,18.0586136 Z M21.7132578,22.678517 C20.7539641,22.678517 19.9738738,21.897795 19.9738738,20.9389471 C19.9738738,19.9798763 20.75441,19.1997488 21.7132578,19.1997488 C22.6725516,19.1997488 23.4530878,19.9798392 23.4530878,20.9389471 C23.4530878,21.897795 22.6725516,22.678517 21.7132578,22.678517 Z M14.9658388,19.8225949 L18.560385,19.8225949 C18.3958582,20.2192353 18.30386,20.6531803 18.3034141,21.1088987 L14.8759212,21.111128 C14.944214,20.812691 14.9836365,20.5034416 14.9836365,20.1838999 C14.9838594,20.0619911 14.9761681,19.9424974 14.9658388,19.8225949 Z M26.8679476,16.7406901 C26.8679476,16.4483838 26.630112,16.2109569 26.3379915,16.2109569 L19.6714239,14.7542186 L17.4903664,8.39872109 C17.4304337,8.16437817 17.2189046,8 16.977019,8 L9.89965463,8 C9.60690247,8 9.37003294,8.23750118 9.37003294,8.52958454 C9.37003294,8.82244817 9.60708825,9.05920624 9.89965463,9.05920624 L10.7968235,9.05920624 L10.7968235,13.8801979 C10.6176201,13.8466832 10.4335493,13.8271763 10.2446853,13.8271763 C8.59919446,13.8271763 7.26488516,15.1613369 7.26488516,16.8069764 L7.26488516,17.8332624 C7.98337083,16.6038074 9.31415031,15.775823 10.8406305,15.775823 C12.915719,15.775823 14.6291682,17.3028233 14.9313952,19.2930476 L18.6862696,19.2930476 C19.2465078,18.2222115 20.3661297,17.4908698 21.6586013,17.4908698 C23.5097878,17.4908698 25.0104446,18.9900032 25.0133056,20.8407066 L26.0143255,20.839852 C26.0338324,20.8420442 25.3910335,20.8462429 25.4108005,20.8462429 L26.4702668,20.8462429 C26.7625731,20.8462429 27,20.6083701 27,20.3167326 L26.8679476,16.7406901 Z M15.711374,14.577839 C15.0843664,12.6921718 12.3927111,12.5059459 12.134737,12.5059459 L11.8564756,12.5059459 L11.8564756,9.05942917 L16.5654419,9.05942917 L18.5467488,14.577839 L15.711374,14.577839 Z" id="icon-tractor-active" fill="#FFFFFF"></path>
                </g>
            </g>
        </g>
    </g>
</svg>