<?xml version="1.0" encoding="UTF-8"?>
<svg width="37px" height="64px" viewBox="0 0 37 64" version="1.1" xmlns="http://www.w3.org/2000/svg" xmlns:xlink="http://www.w3.org/1999/xlink">
    <!-- Generator: Sketch 49 (51002) - http://www.bohemiancoding.com/sketch -->
    <title>icon-pin-dump-truck-active</title>
    <desc>Created with Sketch.</desc>
    <defs></defs>
    <g id="Page-1" stroke="none" stroke-width="1" fill="none" fill-rule="evenodd">
        <g id="UI" transform="translate(-127.000000, -75.000000)" fill-rule="nonzero">
            <g id="Pins" transform="translate(11.000000, 76.000000)">
                <g id="icon-pin-dump-truck-active" transform="translate(117.000000, 0.000000)">
                    <path d="M4.69868956,6.01072172 C1.97721056,8.91521745 0.272565722,13.1462547 0.338755442,17.1259872 C0.47697515,25.4424443 4.22562774,28.5906523 10.2204047,40.0366934 C12.3798334,45.0734066 14.6336367,50.4028903 16.7771886,59.2296571 C17.0750856,60.5316694 17.3656065,61.7410594 17.4999976,61.8458382 C17.6343238,61.9507467 17.9249096,60.737009 18.2228066,59.4349966 C20.3663585,50.6082298 22.6201617,45.2829857 24.7795905,40.2462725 C30.7743674,28.8002314 34.5229768,25.6520018 34.6612397,17.3355448 C34.7274295,13.3558122 33.0185667,9.120557 30.2970877,6.21606126 C27.1882474,2.89816098 22.49916,0.442673804 17.4999976,0.339993217 C12.5008352,0.237247737 7.80752983,2.69282143 4.69868956,6.01072172 Z" id="pin" stroke="#9C5901" stroke-width="1.1855854" fill="#FF9000"></path>
                    <g id="icon" transform="translate(7.000000, 10.000000)" fill="#FFFFFF">
                        <path d="M4.35299918,7.98123944 C2.98495232,7.98123944 1.87758203,9.08879052 1.87758203,10.4570607 C1.87758203,11.825331 2.98495232,12.932882 4.35299918,12.932882 C5.72104605,12.932882 6.82841634,11.825331 6.82841634,10.4570607 C6.82841634,9.0908116 5.72104605,7.98123944 4.35299918,7.98123944 Z M4.35299918,11.2755976 C3.90237222,11.2755976 3.53661671,10.9097824 3.53661671,10.4570607 C3.53661671,10.0063602 3.90237222,9.64054498 4.35299918,9.64054498 C4.80564689,9.64054498 5.17140241,10.0063602 5.17140241,10.4570607 C5.17140241,10.9097824 4.80564689,11.2755976 4.35299918,11.2755976 Z" id="Shape"></path>
                        <path d="M12.7327953,2.12415362 L12.7327953,7.17482907 C12.7327953,7.17482907 12.8682075,7.14249182 13.549311,7.14249182 C15.0691621,7.14249182 15.8412142,7.88826982 16.2110716,8.46629831 C16.4050951,8.26419045 16.6759196,8.13686249 16.9770603,8.13686249 L19.4528816,8.13686249 L19.4528816,4.42212 L17.9491992,2.12213254 L12.7327953,2.12213254 L12.7327953,2.12415362 Z M18.3918154,6.01472995 L15.5623053,6.01472995 L15.5623053,3.18521989 L17.6844379,3.18521989 L18.3918154,4.31298176 L18.3918154,6.01472995 Z" id="Shape"></path>
                        <path d="M1.03883441,5.66104119 C1.03883441,5.66104119 6.87570944,6.74433933 7.64776147,9.55161752 L10.3216485,9.55161752 C10.3216485,9.55161752 10.6531054,7.78317374 12.0233967,7.29811487 L12.0233967,1.41677611 L18.2462977,1.41677611 L19.2750267,0.00202107861 L11.3180402,0.00202107861 L10.3459014,2.12415362 L0,2.12415362 L0,3.53890865 L1.06106627,3.53890865 L1.03883441,5.66104119 Z" id="Shape"></path>
                        <path d="M16.9770603,8.84424001 C16.813353,8.84424001 16.6799618,8.95944149 16.6415613,9.11304346 C16.633477,9.14133856 16.6233716,9.16761259 16.6233716,9.19792877 L16.6233716,9.90530628 C16.6233716,10.1013509 16.7810157,10.258995 16.9770603,10.258995 L19.4528816,10.258995 C19.6469052,10.258995 19.8065704,10.1013509 19.8065704,9.90530628 L19.8065704,9.19792877 C19.8065704,9.00390522 19.6469052,8.84424001 19.4528816,8.84424001 L16.9770603,8.84424001 Z" id="Shape"></path>
                        <path d="M13.549311,7.98123944 C12.1810408,7.98123944 11.0734897,9.08879052 11.0734897,10.4570607 C11.0734897,11.825331 12.1810408,12.932882 13.549311,12.932882 C14.9175812,12.932882 16.0251323,11.825331 16.0251323,10.4570607 C16.0251323,10.4227024 16.0210902,10.3903651 16.0210902,10.3580279 C16.0130058,10.1377303 15.9786475,9.92551707 15.9159941,9.7234092 C15.6027269,8.71489098 14.6629253,7.98123944 13.549311,7.98123944 Z M13.549311,11.2755976 C13.0986105,11.2755976 12.7327953,10.9097824 12.7327953,10.4570607 C12.7327953,10.0063602 13.0986105,9.64054498 13.549311,9.64054498 C14.0020326,9.64054498 14.3678479,10.0063602 14.3678479,10.4570607 C14.3678479,10.9097824 14.0020326,11.2755976 13.549311,11.2755976 Z" id="Shape"></path>
                    </g>
                </g>
            </g>
        </g>
    </g>
</svg>